<?xml version="1.0" standalone="no"?>
<!DOCTYPE svg PUBLIC "-//W3C//DTD SVG 20010904//EN"
 "http://www.w3.org/TR/2001/REC-SVG-20010904/DTD/svg10.dtd">
<svg version="1.0" xmlns="http://www.w3.org/2000/svg"
 width="512.000000pt" height="512.000000pt" viewBox="0 0 512.000000 512.000000"
 preserveAspectRatio="xMidYMid meet">

<g transform="translate(0.000000,512.000000) scale(0.100000,-0.100000)"
fill="#000000" stroke="none">
<path d="M2577 5074 c-11 -11 5 -34 24 -34 22 0 24 11 7 28 -13 13 -22 15 -31
6z"/>
<path d="M2805 5061 c22 -11 47 -19 55 -19 17 0 -32 22 -70 32 -14 3 -7 -3 15
-13z"/>
<path d="M3110 5040 c20 -13 43 -13 35 0 -3 6 -16 10 -28 10 -18 0 -19 -2 -7
-10z"/>
<path d="M2043 5016 c-63 -26 -73 -34 -39 -32 14 0 26 4 26 8 0 3 16 12 35 18
19 6 37 16 40 21 9 13 -3 10 -62 -15z"/>
<path d="M2150 5031 c0 -6 4 -13 10 -16 6 -3 7 1 4 9 -7 18 -14 21 -14 7z"/>
<path d="M3161 5026 c12 -10 60 -16 54 -6 -3 5 -18 10 -32 10 -15 0 -24 -2
-22 -4z"/>
<path d="M2871 5003 c7 -12 15 -20 18 -17 3 2 -3 12 -13 22 -17 16 -18 16 -5
-5z"/>
<path d="M2203 4979 c-40 -26 -45 -52 -8 -43 15 4 32 1 43 -7 15 -13 16 -12 3
4 -12 15 -11 20 3 35 33 37 9 43 -41 11z"/>
<path d="M1730 4951 c-25 -10 -49 -18 -55 -16 -5 1 -6 0 -1 -3 4 -2 2 -8 -5
-13 -27 -17 11 -10 49 10 20 10 43 16 51 13 8 -2 11 0 7 6 -3 6 0 13 6 15 7 3
9 6 3 6 -5 0 -30 -8 -55 -18z"/>
<path d="M1930 4960 c-19 -4 -27 -8 -17 -9 11 0 15 -6 11 -12 -3 -6 5 -3 20 6
14 10 26 19 26 21 0 2 -1 3 -2 3 -2 -1 -19 -5 -38 -9z"/>
<path d="M2007 4963 c-4 -3 -6 -22 -6 -42 l1 -36 8 40 c8 42 8 49 -3 38z"/>
<path d="M2068 4963 c6 -2 18 -2 25 0 6 3 1 5 -13 5 -14 0 -19 -2 -12 -5z"/>
<path d="M3261 4947 c-1 -15 -4 -16 -22 -7 -11 6 -28 10 -37 8 -12 -3 -3 -12
28 -27 25 -13 49 -30 55 -36 6 -8 18 -10 29 -6 18 7 17 9 -12 26 -17 10 -33
28 -35 39 -3 17 -5 17 -6 3z"/>
<path d="M2901 4934 c0 -11 3 -14 6 -6 3 7 2 16 -1 19 -3 4 -6 -2 -5 -13z"/>
<path d="M1843 4873 c-50 -48 -51 -50 -9 -14 72 62 81 71 75 71 -4 0 -33 -26
-66 -57z"/>
<path d="M2285 4870 c21 -22 41 -40 44 -40 3 0 -13 18 -34 40 -21 22 -41 40
-44 40 -3 0 13 -18 34 -40z"/>
<path d="M1497 4874 c-16 -9 -31 -13 -34 -11 -5 5 -53 -37 -53 -47 0 -6 106
50 125 66 15 13 -7 9 -38 -8z"/>
<path d="M1634 4868 l-19 -23 23 19 c21 18 27 26 19 26 -2 0 -12 -10 -23 -22z"/>
<path d="M2010 4869 c0 -10 18 -41 40 -70 30 -40 37 -56 30 -70 -6 -10 -10
-27 -10 -39 0 -18 5 -21 33 -19 18 2 37 0 44 -4 7 -5 9 -1 6 11 -2 10 3 24 11
31 21 17 20 50 0 58 -10 3 -29 2 -44 -4 -24 -9 -29 -6 -53 28 -16 21 -34 51
-42 66 -9 17 -15 22 -15 12z"/>
<path d="M3647 4859 c7 -7 15 -10 18 -7 3 3 -2 9 -12 12 -14 6 -15 5 -6 -5z"/>
<path d="M2813 4795 c0 -33 2 -45 4 -27 2 18 2 45 0 60 -2 15 -4 0 -4 -33z"/>
<path d="M2901 4834 c0 -11 3 -14 6 -6 3 7 2 16 -1 19 -3 4 -6 -2 -5 -13z"/>
<path d="M2340 4826 c0 -2 8 -10 18 -17 15 -13 16 -12 3 4 -13 16 -21 21 -21
13z"/>
<path d="M1385 4811 c-3 -5 -2 -12 3 -15 5 -3 9 1 9 9 0 17 -3 19 -12 6z"/>
<path d="M3321 4815 c1 -19 18 -51 18 -35 0 8 -4 22 -9 30 -5 8 -9 11 -9 5z"/>
<path d="M1754 4778 l-19 -23 23 19 c21 18 27 26 19 26 -2 0 -12 -10 -23 -22z"/>
<path d="M3497 4773 c4 -19 1 -23 -18 -23 l-22 0 23 -25 c13 -14 19 -25 14
-25 -5 0 12 -11 38 -25 26 -14 52 -25 58 -25 22 0 8 28 -32 66 -24 21 -48 48
-55 59 -11 19 -11 19 -6 -2z"/>
<path d="M1989 4753 c-13 -16 -12 -17 4 -4 9 7 17 15 17 17 0 8 -8 3 -21 -13z"/>
<path d="M1349 4743 c-13 -16 -12 -17 4 -4 9 7 17 15 17 17 0 8 -8 3 -21 -13z"/>
<path d="M3342 4740 c0 -14 2 -19 5 -12 2 6 2 18 0 25 -3 6 -5 1 -5 -13z"/>
<path d="M2862 4715 c-17 -37 -14 -45 4 -12 9 16 14 31 11 33 -2 2 -9 -7 -15
-21z"/>
<path d="M1541 4714 c0 -11 3 -14 6 -6 3 7 2 16 -1 19 -3 4 -6 -2 -5 -13z"/>
<path d="M1239 4703 c-13 -16 -12 -17 4 -4 9 7 17 15 17 17 0 8 -8 3 -21 -13z"/>
<path d="M1315 4689 c-9 -17 -15 -33 -13 -35 3 -2 12 12 21 31 21 43 13 47 -8
4z"/>
<path d="M2800 4696 c0 -53 -12 -85 -34 -88 -16 -2 -24 5 -33 32 l-11 35 5
-44 c6 -41 4 -44 -13 -37 -15 6 -17 5 -6 -5 6 -7 12 -21 12 -30 0 -10 -6 -20
-12 -22 -10 -4 -10 -6 0 -6 25 -2 53 -43 62 -93 14 -71 22 -74 14 -5 l-7 57
30 0 c16 0 35 -6 43 -12 12 -11 12 -10 1 4 -7 9 -10 30 -8 47 3 19 0 35 -9 42
-8 6 -14 18 -14 26 0 8 -5 11 -11 8 -7 -5 -8 12 -3 54 3 34 4 61 0 61 -3 0 -6
-11 -6 -24z"/>
<path d="M2711 4694 c0 -11 3 -14 6 -6 3 7 2 16 -1 19 -3 4 -6 -2 -5 -13z"/>
<path d="M3351 4688 c0 -16 -7 -28 -13 -28 -10 0 -10 -2 -1 -8 20 -13 -14
-146 -60 -237 -30 -61 -118 -195 -127 -195 -7 0 -44 32 -215 189 l-70 65 70
-70 c39 -38 101 -97 138 -132 37 -35 67 -67 67 -70 0 -8 -83 -112 -154 -194
-45 -53 -50 -56 -75 -45 -14 6 -28 12 -29 13 -2 1 -10 26 -18 56 l-13 53 5
-57 c5 -50 3 -58 -16 -68 -17 -9 -26 -5 -66 33 l-47 43 12 66 c6 35 11 78 10
94 -1 16 -7 -9 -15 -55 -8 -47 -16 -86 -18 -88 -2 -3 -103 94 -224 214 -122
120 -213 210 -205 201 9 -10 14 -18 12 -18 -7 0 209 -218 314 -319 l99 -94 -7
-53 c-6 -48 -9 -54 -30 -54 -26 0 -604 97 -824 138 l-145 27 -19 75 c-15 63
-16 76 -4 85 7 5 21 22 31 37 10 15 27 29 39 31 22 4 22 4 0 6 -13 0 -23 4
-23 8 0 4 28 37 63 73 l62 65 -66 -64 c-54 -51 -68 -60 -75 -48 -8 13 -14 13
-47 2 l-38 -13 -19 41 c-10 23 -28 63 -40 89 -12 27 -25 83 -29 130 l-8 83 -1
-65 c-1 -45 6 -85 22 -130 14 -42 20 -73 15 -85 -13 -33 -9 -52 4 -21 l13 29
18 -42 c18 -40 18 -42 1 -61 -20 -22 -55 -27 -55 -7 0 8 -2 9 -8 1 -4 -7 -16
-14 -27 -17 -11 -2 1 -5 26 -6 45 -1 47 -2 52 -33 6 -39 -7 -58 -39 -58 -16 0
-24 6 -25 18 0 13 -2 14 -6 2 -5 -16 -32 -40 -43 -40 -7 0 -70 84 -70 94 0 2
15 7 33 9 28 3 27 4 -10 5 -40 2 -43 5 -74 60 -19 31 -41 80 -51 107 -18 49
-18 49 -12 10 7 -48 57 -158 84 -185 3 -3 25 -29 48 -58 l44 -53 -17 -35 c-16
-35 -13 -74 7 -74 6 0 8 -9 5 -20 -3 -11 -1 -18 4 -14 13 7 12 1 -16 -137 -14
-67 -32 -175 -40 -238 -14 -107 -35 -463 -35 -606 0 -56 -2 -62 -29 -78 l-30
-17 -103 86 c-165 139 -189 164 -177 186 6 11 8 22 6 25 -3 2 -8 -5 -12 -16
-3 -12 -10 -21 -13 -21 -8 0 -106 100 -165 168 -22 25 -37 53 -38 70 0 22 -2
24 -8 8 -6 -17 -14 -10 -53 45 -83 117 -79 107 -53 162 13 26 19 47 14 47 -5
0 -9 6 -9 14 0 25 -43 23 -66 -3 l-20 -24 -39 74 c-21 40 -44 92 -52 114 -13
39 -13 40 -8 5 3 -19 25 -74 49 -121 40 -80 42 -88 29 -113 -7 -14 -18 -26
-23 -26 -16 0 -101 -42 -96 -47 2 -2 22 5 45 16 49 26 61 26 61 4 0 -38 14
-44 53 -24 l36 18 37 -56 c20 -31 52 -75 70 -98 19 -23 34 -46 34 -52 0 -6 4
-11 9 -11 4 0 7 -10 6 -22 -1 -15 -1 -16 2 -4 4 14 23 -1 94 -73 79 -81 88
-94 78 -112 -6 -11 -8 -23 -5 -27 3 -3 6 -1 6 4 0 5 4 15 9 23 6 10 35 -9 117
-80 60 -52 127 -108 149 -126 67 -53 39 -58 -122 -21 l-141 33 -5 38 c-3 21
-12 46 -20 55 -12 13 -13 22 -5 35 5 10 8 21 5 24 -3 2 -8 -4 -11 -15 -6 -18
-33 -32 -63 -32 -6 0 -14 14 -18 31 -4 17 -9 28 -12 25 -3 -3 0 -19 6 -37 9
-25 8 -36 -2 -48 -8 -9 -17 -24 -20 -34 -5 -14 -14 -17 -34 -13 -16 3 -68 10
-118 16 -49 5 -137 17 -195 26 -58 8 -112 16 -120 16 -25 1 -262 48 -273 55
-5 3 -7 22 -3 42 3 20 1 43 -4 51 -7 12 -12 8 -21 -17 -6 -18 -15 -30 -20 -27
-6 3 -7 -4 -4 -18 3 -13 -2 -39 -14 -61 -11 -22 -14 -34 -6 -27 11 9 14 5 17
-17 4 -28 4 -28 22 12 10 22 19 41 21 43 2 2 59 -8 127 -22 147 -30 545 -86
613 -86 3 0 5 -10 5 -23 0 -18 -23 -41 -89 -93 -130 -101 -297 -252 -365 -329
l-58 -66 -19 30 c-10 17 -22 31 -26 31 -16 0 -32 -16 -41 -40 -9 -24 -11 -23
-87 50 -43 41 -95 102 -116 134 -22 33 -39 55 -39 50 0 -23 80 -126 154 -197
49 -49 82 -88 84 -104 2 -19 -13 -41 -65 -97 -37 -41 -76 -89 -86 -107 -17
-33 -17 -33 0 -9 27 37 131 158 143 165 19 12 10 -16 -18 -58 -83 -122 -137
-255 -148 -362 -4 -42 -10 -62 -15 -53 -14 22 -10 -6 12 -78 28 -96 29 -98 35
-91 3 3 1 22 -5 42 l-10 37 57 -6 c98 -11 320 -25 492 -32 l165 -6 57 -56 c44
-42 58 -63 58 -85 0 -15 6 -40 14 -55 14 -27 13 -30 -56 -107 -156 -178 -229
-325 -227 -463 0 -42 4 -86 9 -97 5 -12 6 8 3 50 -6 74 6 149 32 213 l16 37
20 -25 21 -25 -17 31 c-16 29 -16 32 3 70 32 62 205 274 224 274 4 0 6 -21 3
-48 -4 -43 -1 -39 10 14 4 16 11 20 27 17 37 -7 63 19 60 61 -2 30 1 36 20 40
45 10 152 26 153 23 1 -1 17 -46 35 -100 17 -54 34 -97 36 -94 2 2 -10 45 -27
96 -17 51 -29 94 -26 97 2 3 94 19 203 35 195 30 299 33 429 14 54 -8 433 -35
472 -34 39 2 2 6 -317 34 -293 26 -298 27 -150 48 69 10 242 35 385 56 143 21
263 35 267 32 4 -4 11 -27 14 -52 6 -41 4 -46 -20 -57 -14 -6 -31 -23 -38 -36
-8 -20 -20 -26 -52 -29 l-41 -4 41 -1 c38 -2 42 -5 46 -32 4 -27 -2 -34 -91
-97 -149 -104 -359 -264 -449 -342 -45 -39 -85 -71 -88 -71 -6 0 -285 153
-423 233 -36 21 -76 43 -88 49 -13 6 -25 20 -29 31 -4 12 -9 16 -13 8 -6 -10
-24 0 -163 86 -5 2 -8 2 -8 -1 0 -2 41 -30 90 -61 63 -40 95 -67 105 -89 8
-17 12 -21 9 -8 -7 27 2 28 46 1 19 -12 112 -64 205 -116 94 -52 189 -106 213
-119 l42 -25 -111 -118 -112 -118 -36 13 c-42 14 -61 4 -61 -32 0 -24 -2 -24
-96 -24 -80 0 -99 3 -110 18 -13 16 -14 16 -7 -2 5 -16 2 -18 -20 -14 -15 3
-27 1 -27 -3 0 -5 14 -9 31 -9 18 0 38 -7 45 -17 13 -17 14 -17 8 0 -6 15 3
17 89 17 85 0 97 -2 110 -21 13 -18 12 -27 -4 -81 -11 -34 -18 -66 -16 -72 2
-6 7 5 12 24 4 19 13 49 21 67 12 31 14 32 46 21 18 -6 44 -20 58 -32 l25 -21
-22 26 c-19 21 -21 28 -10 43 11 15 16 16 56 1 24 -8 46 -13 48 -11 3 2 -20
12 -50 22 -31 9 -58 24 -60 33 -3 9 -8 23 -12 32 -7 19 103 151 179 213 l46
37 250 -135 c137 -75 275 -150 307 -167 32 -18 54 -27 48 -22 -5 6 -134 79
-285 161 -151 83 -283 157 -294 164 -17 13 -11 20 80 94 55 45 189 147 299
229 110 81 206 152 212 158 15 11 83 -18 83 -36 0 -7 -4 -59 -10 -117 -27
-294 -57 -795 -44 -717 4 21 10 27 22 23 14 -5 14 -4 -1 8 -18 14 -17 28 12
398 17 210 31 390 31 399 0 9 14 20 34 26 34 10 34 10 125 -81 l92 -92 -56
-234 c-30 -129 -55 -239 -55 -244 0 -30 15 23 60 215 28 117 53 222 56 231 4
13 20 0 71 -55 79 -86 191 -225 262 -325 l51 -72 -62 -28 c-35 -16 -78 -34
-96 -42 -18 -7 -31 -14 -29 -16 2 -2 37 9 77 26 40 17 75 29 77 26 2 -2 -1
-15 -6 -29 -9 -22 -7 -29 12 -42 30 -21 55 -19 92 9 l32 25 164 -55 c178 -59
361 -144 423 -197 l39 -33 -33 -32 c-48 -48 -29 -50 38 -4 33 22 64 38 68 34
5 -4 6 -3 2 2 -4 5 -3 15 4 23 20 24 0 26 -37 3 -35 -21 -37 -22 -56 -4 -11
10 -17 24 -14 31 3 8 0 11 -6 8 -5 -4 -27 4 -47 18 -20 14 -64 38 -97 54 -33
15 -62 30 -65 33 -3 3 -9 6 -15 7 -5 2 -89 30 -185 63 -170 58 -175 60 -175
87 0 15 4 34 9 41 6 9 4 11 -8 6 -9 -3 -16 -1 -16 5 0 6 5 11 12 11 6 0 9 3 6
6 -4 3 -15 1 -25 -4 -10 -5 -32 -12 -49 -15 -30 -6 -34 -2 -87 77 -62 90 -201
261 -277 341 l-49 50 25 110 c14 60 26 110 27 111 1 1 198 -16 437 -38 l435
-40 72 -36 c109 -55 110 -57 87 -84 l-19 -23 25 21 25 22 63 -40 c58 -37 63
-43 60 -72 -3 -29 -11 -35 -168 -113 -91 -45 -162 -82 -159 -82 4 -1 76 32
162 73 135 64 156 72 163 58 4 -9 7 -20 6 -24 -1 -4 4 -5 12 -2 18 7 30 -58
21 -112 -5 -28 -4 -35 4 -24 7 11 11 -2 13 -50 2 -36 4 -8 3 62 0 117 2 129
21 149 l22 21 51 -63 c28 -35 68 -97 88 -137 31 -61 37 -84 37 -140 1 -37 -2
-80 -6 -97 -7 -28 -6 -27 9 5 38 86 -15 250 -125 385 -48 58 -49 62 -36 88 8
14 13 39 12 55 -3 39 -48 43 -84 7 -30 -30 -34 -28 -50 25 -15 49 1 79 32 62
10 -5 37 -17 59 -27 128 -54 363 -221 351 -249 -2 -6 -11 -28 -20 -48 -20 -46
-5 -58 29 -24 20 20 27 23 31 11 3 -8 3 -19 -1 -25 -3 -5 -2 -10 3 -10 13 0
22 48 10 52 -11 4 11 58 24 58 5 0 19 9 31 21 14 13 17 19 7 17 -8 -2 -20 -10
-27 -18 -10 -13 -11 -11 -6 7 7 29 -13 30 -43 2 l-22 -21 -64 54 c-90 76 -108
88 -248 158 -139 70 -140 71 -122 77 6 3 12 10 12 16 0 7 51 30 112 52 141 50
142 50 133 33 -3 -7 0 -5 8 4 8 10 59 36 113 59 116 48 318 151 354 180 17 14
10 12 -25 -7 -27 -15 -55 -31 -61 -36 -6 -4 -14 -5 -17 -1 -4 3 -7 2 -7 -4 0
-10 -124 -71 -254 -124 -58 -25 -67 -26 -62 -11 4 12 1 10 -11 -5 -16 -20
-246 -112 -280 -113 -30 0 -8 48 69 148 45 59 86 113 91 119 5 7 7 13 5 13 -3
0 -45 -53 -94 -117 l-88 -116 -14 33 c-12 29 -11 50 2 145 9 60 18 148 20 195
5 96 3 83 -20 -115 -9 -77 -21 -143 -26 -146 -6 -4 -8 -11 -4 -17 11 -17 -5
-92 -20 -92 -7 0 -26 -16 -43 -37 l-30 -36 -93 12 c-80 11 -110 21 -213 71
-101 49 -394 176 -567 246 -27 10 -48 24 -48 29 0 6 80 55 177 110 97 55 257
151 355 213 99 61 184 112 188 112 12 0 203 -383 240 -482 19 -49 35 -86 38
-84 9 9 -103 270 -182 421 l-82 160 132 92 133 93 35 -22 35 -23 3 -210 3
-210 2 206 3 207 34 35 33 35 94 -55 c164 -95 280 -176 274 -191 -2 -7 0 -10
5 -7 5 3 26 -5 47 -19 36 -25 37 -28 38 -88 1 -50 -4 -75 -27 -122 -37 -79
-28 -85 11 -7 21 41 35 59 45 55 19 -7 54 29 62 63 3 16 7 33 9 39 4 13 125
78 125 67 0 -5 4 -3 8 2 4 6 33 26 65 45 31 19 74 52 95 75 l37 40 -35 -31
c-51 -45 -89 -69 -185 -119 -102 -53 -115 -55 -115 -16 0 54 -64 45 -83 -12
-2 -8 -16 -2 -41 17 -31 23 -37 33 -33 55 5 24 4 24 -8 7 -13 -17 -21 -14
-127 56 -62 41 -146 94 -186 118 -58 34 -72 47 -70 64 2 17 15 23 73 34 39 7
147 31 242 53 95 21 174 39 177 39 2 0 7 -15 10 -34 7 -35 34 -54 57 -40 6 3
15 1 19 -5 4 -7 7 30 7 81 0 84 3 99 32 155 17 34 31 66 31 70 -1 4 -17 -23
-36 -60 -33 -65 -36 -68 -53 -53 -26 24 -49 10 -62 -38 -21 -75 -19 -72 -29
-56 -6 9 -10 10 -10 3 0 -15 -33 -25 -225 -67 -249 -55 -238 -54 -253 -14 -11
32 -9 42 33 142 52 125 137 375 132 389 -2 6 -13 -25 -26 -69 -23 -80 -148
-403 -160 -415 -13 -14 -70 3 -77 23 -3 11 -8 17 -11 15 -3 -3 0 -13 5 -23 7
-13 5 -25 -10 -45 l-21 -27 -146 71 c-139 69 -203 99 -353 166 -39 17 -68 36
-68 44 0 8 -3 28 -6 44 -5 27 0 33 51 72 31 24 111 88 177 143 111 93 121 98
133 81 17 -22 149 -315 195 -431 18 -45 35 -81 37 -78 6 6 -104 269 -174 419
l-57 118 111 112 c120 121 190 204 254 298 66 98 40 76 -41 -34 -69 -93 -324
-367 -333 -357 -2 3 -32 57 -67 120 -35 63 -106 186 -158 273 -52 87 -93 159
-91 161 7 6 702 -41 705 -47 7 -24 43 -62 67 -72 25 -10 40 -29 67 -84 18 -39
35 -69 37 -67 3 2 -11 35 -31 73 -22 44 -31 74 -26 83 4 7 2 34 -6 61 l-14 48
37 50 38 51 8 -28 c4 -15 10 -72 14 -127 l6 -100 -29 25 c-24 21 -23 19 5 -12
32 -35 33 -38 26 -90 -11 -78 -8 -117 12 -136 16 -16 16 -16 8 3 -4 11 -9 94
-9 185 -1 94 -8 194 -16 232 -12 63 -12 69 9 119 13 28 24 77 26 108 l4 56 -8
-52 c-15 -88 -18 -91 -51 -44 -17 23 -31 55 -31 73 -2 30 -2 31 -6 6 -4 -26
-5 -27 -28 -12 -31 20 -40 4 -21 -40 l14 -35 -66 -15 c-116 -26 -688 -126
-720 -126 -5 0 -17 12 -27 26 -16 24 -15 29 14 110 44 122 71 266 69 371 l-1
88 -7 -115 c-8 -121 -25 -206 -60 -306 -44 -121 -36 -111 -93 -112 l-52 0
-113 107 -112 106 40 60 c97 142 175 348 159 420 l-7 30 -1 -27z m-1675 -518
c8 -35 13 -65 11 -67 -2 -2 -26 1 -54 7 -49 11 -49 11 -48 49 1 44 17 68 48
73 12 2 23 3 25 2 2 -1 10 -30 18 -64z m1600 -85 c101 -95 112 -109 111 -138
-1 -18 2 -43 7 -56 l8 -24 -163 7 c-243 10 -262 13 -277 44 -11 24 -9 30 26
71 21 25 67 81 101 124 34 42 65 77 68 77 3 0 56 -47 119 -105z m-1620 9 c41
-6 42 -7 58 -68 31 -111 118 -317 213 -505 51 -102 93 -186 93 -187 0 -2 -78
-55 -172 -120 -194 -131 -368 -254 -368 -259 0 -2 120 75 266 171 146 97 272
178 278 180 8 3 49 -55 104 -148 50 -84 105 -173 122 -198 l30 -45 -103 -6
c-56 -4 -228 -7 -381 -8 -154 0 -276 -4 -273 -7 3 -4 179 -6 389 -5 l383 1 38
-60 38 -59 -22 -30 c-13 -17 -28 -31 -35 -31 -10 0 -580 110 -780 151 -45 9
-51 13 -51 34 0 35 -30 75 -64 87 -28 10 -29 12 -29 71 1 146 20 481 35 592 8
66 27 178 41 248 14 71 23 131 20 134 -6 7 19 33 32 33 4 0 19 11 32 26 16 16
31 23 45 20 11 -3 39 -8 61 -12z m213 -40 c75 -15 289 -53 476 -84 l340 -57
-1 -29 c-1 -16 -7 -55 -13 -86 l-12 -57 -237 -152 c-130 -84 -269 -174 -309
-200 l-71 -48 -14 22 c-32 49 -140 259 -187 364 -40 89 -131 331 -131 349 0 7
23 4 159 -22z m2506 -30 c21 -20 34 -39 29 -42 -5 -4 -17 -23 -27 -42 -10 -19
-28 -48 -41 -63 l-23 -28 -37 21 c-45 28 -71 14 -62 -33 6 -28 5 -29 -32 -23
-20 3 -158 13 -307 21 -348 21 -335 19 -335 55 0 27 2 29 68 39 290 46 513 85
602 105 58 13 110 24 116 25 6 1 28 -15 49 -35z m-1601 -43 c51 -52 45 -77
-16 -67 -23 4 -44 9 -46 11 -6 6 10 95 17 95 4 0 24 -18 45 -39z m23 -85 c1 0
4 -13 8 -27 6 -24 0 -30 -56 -67 -35 -23 -65 -40 -67 -37 -2 2 2 36 9 75 l12
71 46 -7 c25 -4 47 -7 48 -8z m460 -35 c79 -4 145 -10 149 -14 12 -11 -254
-377 -274 -377 -4 0 -49 77 -101 170 -84 154 -92 172 -79 188 8 9 18 24 21 33
4 14 17 16 74 12 37 -2 132 -7 210 -12z m225 -25 c25 -1 39 -20 147 -201 65
-110 137 -234 160 -277 l41 -76 -63 -57 c-35 -31 -117 -98 -182 -150 l-118
-94 -25 19 c-13 11 -39 20 -56 20 -31 0 -33 4 -139 214 l-107 214 92 124 c51
68 116 158 143 201 36 56 54 75 65 70 8 -4 27 -7 42 -7z m-630 -22 c16 -9 41
-13 53 -10 21 6 31 -9 120 -175 l96 -181 -68 -77 c-38 -42 -146 -163 -242
-268 l-173 -193 -74 0 c-67 0 -75 2 -70 18 3 9 44 195 92 412 47 217 89 396
94 398 4 1 36 23 70 47 35 25 66 45 67 45 2 0 18 -7 35 -16z m-261 -385 c-33
-151 -72 -329 -87 -396 l-28 -123 -91 0 -90 0 -123 206 c-68 113 -122 208
-120 210 2 2 132 87 288 189 157 103 289 191 295 196 6 6 11 6 13 0 2 -5 -24
-132 -57 -282z m655 -224 c93 -182 98 -194 82 -212 -9 -10 -20 -30 -23 -45
l-7 -28 -283 0 c-155 0 -297 -3 -315 -7 -21 -4 -31 -2 -29 4 2 6 67 80 144
164 77 85 178 198 225 252 73 85 86 96 96 82 7 -9 56 -103 110 -210z m-2086
-279 c95 -22 146 -38 148 -47 1 -10 -48 -31 -163 -71 -90 -31 -167 -54 -169
-50 -2 4 -7 33 -11 64 -7 53 -5 60 19 88 14 18 26 36 26 41 0 11 -17 14 150
-25z m-270 -16 c11 -11 28 -20 39 -20 15 0 19 -10 25 -52 11 -99 19 -90 -116
-143 -68 -26 -197 -83 -287 -126 -90 -44 -166 -78 -168 -76 -7 8 240 239 357
335 69 56 126 102 128 102 1 0 11 -9 22 -20z m2425 -34 c9 -19 23 -37 30 -40
10 -4 5 -26 -22 -98 -20 -51 -37 -95 -39 -96 -4 -5 -736 38 -744 43 -4 3 -11
21 -15 41 -6 34 -3 40 57 102 l63 67 135 5 c74 3 221 7 327 8 l192 2 16 -34z
m-845 15 c0 -5 -5 -32 -12 -59 -10 -46 -13 -50 -44 -54 -31 -4 -36 0 -68 51
-24 39 -31 58 -23 63 17 11 147 10 147 -1z m148 1 c-1 -5 -29 -37 -60 -71 -49
-54 -59 -61 -76 -52 -21 11 -21 12 -1 94 l10 37 65 0 c36 0 64 -4 62 -8z
m1117 -129 c283 -134 325 -156 325 -165 0 -4 -15 -8 -32 -8 -66 1 -409 28
-414 32 -2 3 -38 54 -78 113 -62 89 -72 111 -63 126 13 21 -2 27 262 -98z
m-2409 60 c20 -31 27 -6 -79 -278 -30 -77 -71 -192 -92 -255 -20 -63 -39 -122
-42 -130 -3 -9 -13 8 -23 40 -10 30 -18 49 -19 41 -1 -8 6 -37 15 -65 16 -50
16 -55 -15 -190 -18 -76 -31 -145 -29 -153 2 -8 16 44 32 116 16 72 32 131 37
131 4 0 10 -14 14 -31 4 -17 9 -28 12 -25 3 2 -1 22 -8 43 -7 21 -12 47 -11
59 3 35 99 318 170 495 l67 169 34 0 c19 0 43 8 53 17 23 21 0 33 255 -138
104 -70 227 -150 276 -179 48 -29 87 -54 87 -55 0 -1 -44 -33 -97 -71 -221
-156 -491 -368 -614 -482 -55 -51 -63 -55 -82 -43 -11 8 -33 17 -49 21 -23 7
-31 4 -48 -17 -11 -14 -20 -34 -20 -44 0 -16 -8 -19 -55 -19 -45 0 -55 3 -56
18 -1 15 -2 15 -6 -2 -5 -17 -12 -18 -103 -11 l-99 7 -95 96 c-52 53 -122 131
-156 172 -75 90 -109 125 -55 55 56 -72 139 -168 219 -252 38 -40 62 -73 54
-73 -160 0 -679 38 -692 51 -15 14 -8 107 14 194 22 85 72 200 122 277 l30 48
28 -20 c24 -17 29 -18 34 -5 9 25 22 17 60 -40 20 -30 39 -55 41 -55 3 0 -14
29 -37 64 -39 57 -43 69 -40 111 l4 47 172 83 c153 75 425 190 431 183 1 -2
12 -58 23 -125 24 -137 72 -346 78 -340 2 2 -9 62 -25 133 -32 140 -66 333
-60 338 5 5 311 115 320 115 4 1 15 -11 25 -26z m483 -33 c168 -32 352 -68
409 -79 57 -10 105 -21 106 -23 2 -1 6 -16 9 -33 5 -29 0 -33 -129 -122 l-134
-92 -93 58 c-167 105 -211 133 -354 233 -78 54 -145 103 -148 108 -10 16 13
13 334 -50z m1680 -12 c19 -29 49 -76 67 -104 l34 -53 -113 5 c-157 7 -180 11
-171 32 3 9 19 49 33 87 28 73 30 75 106 84 6 0 25 -23 44 -51z m-530 -138
c167 -11 306 -22 309 -24 8 -9 -164 -419 -239 -568 -27 -53 -32 -58 -63 -58
-18 0 -44 -9 -57 -19 l-25 -19 -180 109 -181 108 -32 193 c-17 106 -31 198
-31 204 0 6 12 17 27 25 14 8 32 28 39 46 13 31 14 31 71 27 32 -3 195 -14
362 -24z m-544 -60 c15 0 25 -7 28 -22 16 -68 59 -359 54 -364 -5 -6 -368 206
-394 230 -9 8 19 33 115 102 l127 92 24 -19 c13 -11 34 -19 46 -19z m1097 24
l96 -6 75 -121 c42 -67 78 -129 82 -137 6 -17 -216 -160 -525 -338 l-175 -101
-10 31 c-6 17 -18 35 -27 42 -14 10 -7 29 54 161 61 132 184 418 202 468 5 16
14 18 68 13 35 -3 106 -8 160 -12z m395 -20 c133 -6 143 -8 149 -27 5 -16 -1
-28 -26 -49 -36 -30 -236 -168 -243 -168 -4 0 -146 232 -156 254 -2 4 27 6 65
2 38 -3 133 -8 211 -12z m-1605 -295 c112 -67 204 -123 205 -123 6 -4 55 -308
50 -312 -3 -4 -153 -26 -334 -49 -180 -24 -375 -51 -433 -60 -98 -15 -118 -15
-288 2 -100 9 -186 19 -191 22 -4 4 -11 16 -15 28 -6 18 8 34 86 103 168 147
675 521 700 516 10 -2 109 -59 220 -127z m418 -252 c139 -83 155 -96 152 -118
-2 -13 -5 -25 -7 -27 -7 -7 -281 -39 -286 -33 -5 5 -50 262 -49 284 0 9 -4 11
190 -106z m158 -191 l21 -35 -62 -34 c-128 -71 -147 -79 -163 -66 -8 6 -29 15
-46 18 -30 6 -33 11 -41 55 -4 27 -6 50 -5 52 2 2 64 12 138 22 74 11 136 20
137 21 0 0 10 -15 21 -33z m482 -121 c248 -109 374 -167 383 -174 4 -4 -25 -4
-65 1 -95 10 -727 68 -746 68 -15 0 -14 24 9 129 9 43 14 49 40 55 17 3 40 16
52 30 l21 23 70 -30 c39 -16 145 -62 236 -102z m-436 8 c-8 -38 -17 -78 -20
-90 -3 -18 -10 -21 -37 -18 -17 3 -62 7 -99 11 -61 5 -68 8 -68 27 0 18 22 35
112 84 62 34 115 60 119 57 4 -2 1 -34 -7 -71z m-1772 24 c14 -23 8 -36 -36
-72 l-44 -36 -26 26 c-27 27 -74 33 -94 13 -9 -9 -22 -2 -57 32 -25 24 -45 47
-45 50 0 11 295 -1 302 -13z m356 -23 c45 -4 82 -10 82 -13 0 -7 -318 -59
-324 -53 -2 2 7 14 20 27 13 13 24 32 24 41 0 15 8 16 58 11 31 -3 94 -9 140
-13z m-301 -45 c24 -12 42 -23 40 -25 -2 -2 -30 -9 -63 -14 -32 -6 -70 -13
-84 -16 -23 -5 -22 -2 15 35 21 23 41 41 44 41 3 0 24 -10 48 -21z m1636 -75
c40 -4 57 -9 54 -18 -3 -7 -13 -50 -22 -97 -9 -46 -19 -87 -21 -90 -2 -4 -42
33 -89 81 -82 83 -85 88 -74 113 11 23 16 26 53 22 23 -3 67 -7 99 -11z m1257
-16 c0 -5 -4 -8 -10 -8 -5 0 -10 10 -10 23 0 18 2 19 10 7 5 -8 10 -18 10 -22z
m-172 -84 c51 -7 52 -7 52 -40 0 -19 -2 -34 -4 -34 -3 0 -35 18 -73 40 -71 41
-68 45 25 34z m155 -111 c3 -16 4 -29 3 -30 -1 -1 -17 8 -36 20 -34 21 -34 21
-9 28 13 4 27 7 30 8 4 1 9 -11 12 -26z m64 -195 c-3 -8 -6 -5 -6 6 -1 11 2
17 5 13 3 -3 4 -12 1 -19z"/>
<path d="M460 2200 c12 -16 24 -30 26 -30 3 0 -4 14 -16 30 -12 17 -24 30 -26
30 -3 0 4 -13 16 -30z"/>
<path d="M1022 1740 c0 -14 2 -19 5 -12 2 6 2 18 0 25 -3 6 -5 1 -5 -13z"/>
<path d="M1184 4658 l-29 -33 33 29 c30 28 37 36 29 36 -2 0 -16 -15 -33 -32z"/>
<path d="M2837 4663 c-4 -3 -7 -11 -7 -17 0 -6 5 -5 12 2 6 6 9 14 7 17 -3 3
-9 2 -12 -2z"/>
<path d="M3388 4663 c7 -3 16 -2 19 1 4 3 -2 6 -13 5 -11 0 -14 -3 -6 -6z"/>
<path d="M3180 4625 c-58 -13 -98 -23 -89 -24 18 -1 222 39 228 45 9 8 -37 1
-139 -21z"/>
<path d="M1291 4624 c0 -11 3 -14 6 -6 3 7 2 16 -1 19 -3 4 -6 -2 -5 -13z"/>
<path d="M2630 4636 c0 -3 9 -10 20 -16 11 -6 20 -8 20 -6 0 3 -9 10 -20 16
-11 6 -20 8 -20 6z"/>
<path d="M1960 4575 c-24 -25 -42 -45 -39 -45 3 0 25 20 49 45 24 25 42 45 39
45 -3 0 -25 -20 -49 -45z"/>
<path d="M3038 4593 c6 -2 18 -2 25 0 6 3 1 5 -13 5 -14 0 -19 -2 -12 -5z"/>
<path d="M1283 4550 c0 -25 2 -35 4 -22 2 12 2 32 0 45 -2 12 -4 2 -4 -23z"/>
<path d="M2983 4583 c9 -2 23 -2 30 0 6 3 -1 5 -18 5 -16 0 -22 -2 -12 -5z"/>
<path d="M2928 4573 c6 -2 18 -2 25 0 6 3 1 5 -13 5 -14 0 -19 -2 -12 -5z"/>
<path d="M2878 4563 c7 -3 16 -2 19 1 4 3 -2 6 -13 5 -11 0 -14 -3 -6 -6z"/>
<path d="M3582 4550 c0 -14 2 -19 5 -12 2 6 2 18 0 25 -3 6 -5 1 -5 -13z"/>
<path d="M2230 4536 c0 -2 8 -10 18 -17 15 -13 16 -12 3 4 -13 16 -21 21 -21
13z"/>
<path d="M2668 4523 c7 -3 16 -2 19 1 4 3 -2 6 -13 5 -11 0 -14 -3 -6 -6z"/>
<path d="M2618 4513 c6 -2 18 -2 25 0 6 3 1 5 -13 5 -14 0 -19 -2 -12 -5z"/>
<path d="M2578 4503 c7 -3 16 -2 19 1 4 3 -2 6 -13 5 -11 0 -14 -3 -6 -6z"/>
<path d="M2528 4493 c7 -3 16 -2 19 1 4 3 -2 6 -13 5 -11 0 -14 -3 -6 -6z"/>
<path d="M2488 4483 c7 -3 16 -2 19 1 4 3 -2 6 -13 5 -11 0 -14 -3 -6 -6z"/>
<path d="M2438 4473 c7 -3 16 -2 19 1 4 3 -2 6 -13 5 -11 0 -14 -3 -6 -6z"/>
<path d="M2388 4463 c7 -3 16 -2 19 1 4 3 -2 6 -13 5 -11 0 -14 -3 -6 -6z"/>
<path d="M2348 4453 c7 -3 16 -2 19 1 4 3 -2 6 -13 5 -11 0 -14 -3 -6 -6z"/>
<path d="M2248 4433 c7 -3 16 -2 19 1 4 3 -2 6 -13 5 -11 0 -14 -3 -6 -6z"/>
<path d="M2208 4423 c7 -3 16 -2 19 1 4 3 -2 6 -13 5 -11 0 -14 -3 -6 -6z"/>
<path d="M2158 4413 c7 -3 16 -2 19 1 4 3 -2 6 -13 5 -11 0 -14 -3 -6 -6z"/>
<path d="M2108 4403 c7 -3 16 -2 19 1 4 3 -2 6 -13 5 -11 0 -14 -3 -6 -6z"/>
<path d="M2058 4393 c6 -2 18 -2 25 0 6 3 1 5 -13 5 -14 0 -19 -2 -12 -5z"/>
<path d="M2018 4383 c7 -3 16 -2 19 1 4 3 -2 6 -13 5 -11 0 -14 -3 -6 -6z"/>
<path d="M2763 4350 c0 -25 2 -35 4 -22 2 12 2 32 0 45 -2 12 -4 2 -4 -23z"/>
<path d="M1968 4373 c7 -3 16 -2 19 1 4 3 -2 6 -13 5 -11 0 -14 -3 -6 -6z"/>
<path d="M1928 4363 c7 -3 16 -2 19 1 4 3 -2 6 -13 5 -11 0 -14 -3 -6 -6z"/>
<path d="M2791 4354 c0 -11 3 -14 6 -6 3 7 2 16 -1 19 -3 4 -6 -2 -5 -13z"/>
<path d="M1551 4344 c0 -11 3 -14 6 -6 3 7 2 16 -1 19 -3 4 -6 -2 -5 -13z"/>
<path d="M1878 4353 c7 -3 16 -2 19 1 4 3 -2 6 -13 5 -11 0 -14 -3 -6 -6z"/>
<path d="M4391 4313 c47 -52 89 -88 74 -63 -16 26 -99 110 -108 110 -5 0 10
-21 34 -47z"/>
<path d="M1828 4343 c6 -2 18 -2 25 0 6 3 1 5 -13 5 -14 0 -19 -2 -12 -5z"/>
<path d="M1788 4333 c7 -3 16 -2 19 1 4 3 -2 6 -13 5 -11 0 -14 -3 -6 -6z"/>
<path d="M2802 4310 c0 -14 2 -19 5 -12 2 6 2 18 0 25 -3 6 -5 1 -5 -13z"/>
<path d="M873 4265 c-37 -32 -46 -34 -119 -38 l-79 -3 79 -2 c65 -2 77 -5 72
-17 -3 -8 -9 -22 -12 -30 -13 -31 40 -16 71 20 17 19 39 35 50 35 15 0 17 2 6
9 -10 6 -11 13 -2 29 15 28 14 32 -7 32 -10 0 -37 -16 -59 -35z"/>
<path d="M2753 4265 c0 -22 2 -30 4 -17 2 12 2 30 0 40 -3 9 -5 -1 -4 -23z"/>
<path d="M1256 4272 c-2 -4 12 -6 32 -4 62 6 69 10 20 11 -26 0 -49 -3 -52 -7z"/>
<path d="M1532 4260 c0 -14 2 -19 5 -12 2 6 2 18 0 25 -3 6 -5 1 -5 -13z"/>
<path d="M2812 4260 c0 -14 2 -19 5 -12 2 6 2 18 0 25 -3 6 -5 1 -5 -13z"/>
<path d="M1178 4263 c12 -2 32 -2 45 0 12 2 2 4 -23 4 -25 0 -35 -2 -22 -4z"/>
<path d="M1078 4253 c12 -2 32 -2 45 0 12 2 2 4 -23 4 -25 0 -35 -2 -22 -4z"/>
<path d="M993 4243 c9 -2 25 -2 35 0 9 3 1 5 -18 5 -19 0 -27 -2 -17 -5z"/>
<path d="M589 4213 c-13 -16 -17 -22 -9 -15 8 6 28 13 45 13 23 1 25 3 7 6
-12 2 -20 9 -17 14 12 18 -2 8 -26 -18z"/>
<path d="M4015 4216 c10 -14 19 -26 22 -26 7 0 -17 39 -28 46 -6 3 -3 -5 6
-20z"/>
<path d="M2822 4210 c0 -14 2 -19 5 -12 2 6 2 18 0 25 -3 6 -5 1 -5 -13z"/>
<path d="M4441 4204 c0 -11 3 -14 6 -6 3 7 2 16 -1 19 -3 4 -6 -2 -5 -13z"/>
<path d="M549 4163 c-13 -16 -12 -17 4 -4 16 13 21 21 13 21 -2 0 -10 -8 -17
-17z"/>
<path d="M2832 4165 c0 -11 4 -33 8 -50 7 -27 8 -27 8 -5 0 14 -4 36 -8 50 -6
20 -8 21 -8 5z"/>
<path d="M526 4094 c-9 -26 -15 -75 -15 -108 l2 -61 7 75 c4 41 13 88 19 104
6 16 10 31 7 33 -2 2 -11 -17 -20 -43z"/>
<path d="M831 4094 c0 -11 3 -14 6 -6 3 7 2 16 -1 19 -3 4 -6 -2 -5 -13z"/>
<path d="M1338 4049 c-43 -21 -78 -41 -78 -44 0 -6 40 12 115 52 85 46 55 40
-37 -8z"/>
<path d="M812 4015 c-7 -32 -12 -68 -11 -79 0 -12 7 11 15 49 8 39 12 74 11
80 -2 5 -9 -17 -15 -50z"/>
<path d="M689 4043 c-13 -16 -12 -17 4 -4 9 7 17 15 17 17 0 8 -8 3 -21 -13z"/>
<path d="M1118 3934 c-38 -19 -68 -37 -68 -39 0 -3 32 11 70 30 39 19 70 37
70 40 0 7 3 8 -72 -31z"/>
<path d="M1404 3938 c-4 -7 -14 -24 -22 -38 -14 -24 -13 -24 3 -5 20 24 37 55
31 55 -3 0 -8 -6 -12 -12z"/>
<path d="M793 3865 c0 -27 2 -38 4 -22 2 15 2 37 0 50 -2 12 -4 0 -4 -28z"/>
<path d="M998 3869 c-21 -11 -38 -22 -38 -24 0 -3 18 4 40 15 22 11 40 23 40
25 0 7 0 7 -42 -16z"/>
<path d="M1349 3848 c-7 -13 -19 -34 -27 -48 -14 -24 -13 -24 3 -5 20 24 48
75 41 75 -3 0 -11 -10 -17 -22z"/>
<path d="M910 3819 l-25 -20 33 16 c17 8 32 18 32 20 0 10 -16 4 -40 -16z"/>
<path d="M671 3784 c0 -11 3 -14 6 -6 3 7 2 16 -1 19 -3 4 -6 -2 -5 -13z"/>
<path d="M835 3776 c-22 -13 -42 -23 -45 -22 -3 1 -16 -9 -30 -22 -22 -21 -22
-23 -4 -14 12 6 24 8 28 5 3 -3 6 -1 6 5 0 6 20 23 45 38 25 14 45 28 45 30 0
6 -3 5 -45 -20z"/>
<path d="M1285 3740 c-9 -16 -13 -30 -11 -30 3 0 12 14 21 30 9 17 13 30 11
30 -3 0 -12 -13 -21 -30z"/>
<path d="M1220 3620 c-17 -33 -28 -60 -25 -60 2 0 18 27 35 60 17 33 28 60 25
60 -2 0 -18 -27 -35 -60z"/>
<path d="M4541 3565 l96 -100 23 -93 c12 -51 24 -91 27 -89 2 3 -5 40 -16 83
-11 43 -19 80 -17 82 2 1 15 -11 30 -28 14 -17 26 -28 26 -23 0 5 -14 22 -31
39 -17 16 -37 43 -45 59 -7 17 -13 23 -14 15 0 -8 -39 24 -87 70 l-88 85 96
-100z"/>
<path d="M793 3600 c0 -25 2 -35 4 -22 2 12 2 32 0 45 -2 12 -4 2 -4 -23z"/>
<path d="M363 3531 c-51 -27 -108 -62 -126 -77 -18 -16 -27 -25 -20 -21 6 5
18 5 25 1 7 -4 10 -4 6 1 -11 11 30 40 134 95 51 27 89 50 83 49 -5 0 -52 -22
-102 -48z"/>
<path d="M802 3510 c0 -19 2 -27 5 -17 2 9 2 25 0 35 -3 9 -5 1 -5 -18z"/>
<path d="M1127 3434 c-20 -41 -37 -78 -37 -82 1 -4 19 28 41 72 22 43 39 80
37 82 -2 2 -21 -30 -41 -72z"/>
<path d="M4880 3490 c0 -8 5 -32 10 -52 13 -44 34 -64 24 -21 -10 40 -33 91
-34 73z"/>
<path d="M4412 3440 c0 -19 2 -27 5 -17 2 9 2 25 0 35 -3 9 -5 1 -5 -18z"/>
<path d="M4460 3425 c0 -5 5 -17 10 -25 5 -8 10 -10 10 -5 0 6 -5 17 -10 25
-5 8 -10 11 -10 5z"/>
<path d="M154 3388 l-29 -33 33 29 c30 28 37 36 29 36 -2 0 -16 -15 -33 -32z"/>
<path d="M4402 3375 c0 -16 2 -22 5 -12 2 9 2 23 0 30 -3 6 -5 -1 -5 -18z"/>
<path d="M4480 3375 c0 -5 5 -17 10 -25 5 -8 10 -10 10 -5 0 6 -5 17 -10 25
-5 8 -10 11 -10 5z"/>
<path d="M4908 3374 c-8 -8 19 -119 37 -154 35 -68 45 -11 15 87 -13 42 -41
78 -52 67z"/>
<path d="M4745 3350 c10 -11 20 -20 23 -20 3 0 -3 9 -13 20 -10 11 -20 20 -23
20 -3 0 3 -9 13 -20z"/>
<path d="M1067 3305 c-24 -50 -20 -58 4 -12 11 22 19 41 17 43 -3 2 -12 -12
-21 -31z"/>
<path d="M4392 3320 c0 -14 2 -19 5 -12 2 6 2 18 0 25 -3 6 -5 1 -5 -13z"/>
<path d="M4500 3325 c0 -5 5 -17 10 -25 5 -8 10 -10 10 -5 0 6 -5 17 -10 25
-5 8 -10 11 -10 5z"/>
<path d="M841 3304 c0 -11 3 -14 6 -6 3 7 2 16 -1 19 -3 4 -6 -2 -5 -13z"/>
<path d="M4780 3306 c0 -2 8 -10 18 -17 15 -13 16 -12 3 4 -13 16 -21 21 -21
13z"/>
<path d="M4381 3274 c0 -11 3 -14 6 -6 3 7 2 16 -1 19 -3 4 -6 -2 -5 -13z"/>
<path d="M857 3250 c6 -38 31 -111 32 -95 0 6 -8 37 -19 70 -11 33 -17 44 -13
25z"/>
<path d="M4810 3266 c0 -2 8 -10 18 -17 15 -13 16 -12 3 4 -13 16 -21 21 -21
13z"/>
<path d="M4691 3244 c0 -11 3 -14 6 -6 3 7 2 16 -1 19 -3 4 -6 -2 -5 -13z"/>
<path d="M4371 3234 c0 -11 3 -14 6 -6 3 7 2 16 -1 19 -3 4 -6 -2 -5 -13z"/>
<path d="M4536 3230 c3 -14 11 -32 16 -40 6 -10 7 -7 2 10 -3 14 -11 32 -16
40 -6 10 -7 7 -2 -10z"/>
<path d="M4361 3194 c0 -11 3 -14 6 -6 3 7 2 16 -1 19 -3 4 -6 -2 -5 -13z"/>
<path d="M4702 3190 c0 -14 2 -19 5 -12 2 6 2 18 0 25 -3 6 -5 1 -5 -13z"/>
<path d="M4918 3181 c-13 -13 -16 -32 -15 -83 1 -36 5 -62 8 -56 7 11 19 -15
19 -42 0 -23 37 -16 42 9 3 11 9 7 21 -16 9 -17 22 -35 28 -39 11 -6 -13 43
-36 75 -5 8 -16 37 -23 65 -28 111 -25 105 -44 87z"/>
<path d="M4561 3160 c0 -8 4 -24 9 -35 5 -13 9 -14 9 -5 0 8 -4 24 -9 35 -5
13 -9 14 -9 5z"/>
<path d="M4712 3130 c0 -14 2 -19 5 -12 2 6 2 18 0 25 -3 6 -5 1 -5 -13z"/>
<path d="M4722 3065 c0 -16 2 -22 5 -12 2 9 2 23 0 30 -3 6 -5 -1 -5 -18z"/>
<path d="M4732 2985 c0 -16 2 -22 5 -12 2 9 2 23 0 30 -3 6 -5 -1 -5 -18z"/>
<path d="M4611 2984 c0 -11 3 -14 6 -6 3 7 2 16 -1 19 -3 4 -6 -2 -5 -13z"/>
<path d="M4621 2944 c0 -11 3 -14 6 -6 3 7 2 16 -1 19 -3 4 -6 -2 -5 -13z"/>
<path d="M375 2920 c-4 -17 -5 -34 -2 -36 2 -3 7 10 11 27 8 42 0 50 -9 9z"/>
<path d="M4922 2905 c0 -16 2 -22 5 -12 2 9 2 23 0 30 -3 6 -5 -1 -5 -18z"/>
<path d="M4631 2904 c0 -11 3 -14 6 -6 3 7 2 16 -1 19 -3 4 -6 -2 -5 -13z"/>
<path d="M4742 2890 c0 -19 2 -27 5 -17 2 9 2 25 0 35 -3 9 -5 1 -5 -18z"/>
<path d="M4641 2864 c0 -11 3 -14 6 -6 3 7 2 16 -1 19 -3 4 -6 -2 -5 -13z"/>
<path d="M361 2844 c0 -11 3 -14 6 -6 3 7 2 16 -1 19 -3 4 -6 -2 -5 -13z"/>
<path d="M4912 2835 c0 -16 2 -22 5 -12 2 9 2 23 0 30 -3 6 -5 -1 -5 -18z"/>
<path d="M4651 2814 c0 -11 3 -14 6 -6 3 7 2 16 -1 19 -3 4 -6 -2 -5 -13z"/>
<path d="M352 2790 c0 -14 2 -19 5 -12 2 6 2 18 0 25 -3 6 -5 1 -5 -13z"/>
<path d="M4902 2770 c0 -14 2 -19 5 -12 2 6 2 18 0 25 -3 6 -5 1 -5 -13z"/>
<path d="M4662 2760 c0 -14 2 -19 5 -12 2 6 2 18 0 25 -3 6 -5 1 -5 -13z"/>
<path d="M342 2735 c0 -16 2 -22 5 -12 2 9 2 23 0 30 -3 6 -5 -1 -5 -18z"/>
<path d="M4892 2720 c0 -14 2 -19 5 -12 2 6 2 18 0 25 -3 6 -5 1 -5 -13z"/>
<path d="M332 2670 c0 -14 2 -19 5 -12 2 6 2 18 0 25 -3 6 -5 1 -5 -13z"/>
<path d="M4881 2674 c0 -11 3 -14 6 -6 3 7 2 16 -1 19 -3 4 -6 -2 -5 -13z"/>
<path d="M4681 2634 c0 -11 3 -14 6 -6 3 7 2 16 -1 19 -3 4 -6 -2 -5 -13z"/>
<path d="M322 2600 c0 -14 2 -19 5 -12 2 6 2 18 0 25 -3 6 -5 1 -5 -13z"/>
<path d="M4861 2594 c0 -11 3 -14 6 -6 3 7 2 16 -1 19 -3 4 -6 -2 -5 -13z"/>
<path d="M4697 2573 c-10 -19 -18 -67 -9 -58 10 11 25 65 18 65 -3 0 -7 -3 -9
-7z"/>
<path d="M4831 2494 c0 -11 3 -14 6 -6 3 7 2 16 -1 19 -3 4 -6 -2 -5 -13z"/>
<path d="M4656 2465 c-9 -26 -7 -32 5 -12 6 10 9 21 6 23 -2 3 -7 -2 -11 -11z"/>
<path d="M4701 2454 c0 -11 3 -14 6 -6 3 7 2 16 -1 19 -3 4 -6 -2 -5 -13z"/>
<path d="M4626 2395 c-9 -26 -7 -32 5 -12 6 10 9 21 6 23 -2 3 -7 -2 -11 -11z"/>
<path d="M4901 2214 c0 -11 3 -14 6 -6 3 7 2 16 -1 19 -3 4 -6 -2 -5 -13z"/>
<path d="M4515 2170 c-9 -16 -13 -30 -11 -30 3 0 12 14 21 30 9 17 13 30 11
30 -3 0 -12 -13 -21 -30z"/>
<path d="M85 2179 c-4 -6 -5 -12 -2 -15 2 -3 7 2 10 11 7 17 1 20 -8 4z"/>
<path d="M4912 2145 c0 -16 2 -22 5 -12 2 9 2 23 0 30 -3 6 -5 -1 -5 -18z"/>
<path d="M4470 2090 c-6 -11 -8 -20 -6 -20 3 0 10 9 16 20 6 11 8 20 6 20 -3
0 -10 -9 -16 -20z"/>
<path d="M4732 2055 c0 -16 2 -22 5 -12 2 9 2 23 0 30 -3 6 -5 -1 -5 -18z"/>
<path d="M4922 2040 c0 -19 2 -27 5 -17 2 9 2 25 0 35 -3 9 -5 1 -5 -18z"/>
<path d="M4420 2010 c-6 -11 -8 -20 -6 -20 3 0 10 9 16 20 6 11 8 20 6 20 -3
0 -10 -9 -16 -20z"/>
<path d="M4919 1943 c-11 -27 -23 -55 -27 -63 -9 -20 -3 -80 8 -80 18 0 48 57
57 111 16 92 -5 109 -38 32z"/>
<path d="M4580 1930 c-6 -11 -8 -20 -6 -20 3 0 10 9 16 20 6 11 8 20 6 20 -3
0 -10 -9 -16 -20z"/>
<path d="M4348 1903 c-8 -10 -22 -31 -32 -48 l-17 -30 26 30 c27 31 49 65 42
65 -2 0 -11 -8 -19 -17z"/>
<path d="M4742 1860 c0 -14 2 -19 5 -12 2 6 2 18 0 25 -3 6 -5 1 -5 -13z"/>
<path d="M4961 1794 c0 -11 3 -14 6 -6 3 7 2 16 -1 19 -3 4 -6 -2 -5 -13z"/>
<path d="M4319 1523 c-13 -16 -12 -17 4 -4 9 7 17 15 17 17 0 8 -8 3 -21 -13z"/>
<path d="M967 1390 c-4 -30 -6 -80 -6 -110 1 -40 4 -27 10 45 9 109 6 153 -4
65z"/>
<path d="M4141 1414 c0 -11 3 -14 6 -6 3 7 2 16 -1 19 -3 4 -6 -2 -5 -13z"/>
<path d="M655 1350 c9 -16 18 -30 21 -30 2 0 -2 14 -11 30 -9 17 -18 30 -21
30 -2 0 2 -13 11 -30z"/>
<path d="M3865 1338 l-40 -43 43 40 c39 36 47 45 39 45 -2 0 -21 -19 -42 -42z"/>
<path d="M1370 1325 c0 -5 5 -17 10 -25 5 -8 10 -10 10 -5 0 6 -5 17 -10 25
-5 8 -10 11 -10 5z"/>
<path d="M695 1280 c9 -16 18 -30 21 -30 2 0 -2 14 -11 30 -9 17 -18 30 -21
30 -2 0 2 -13 11 -30z"/>
<path d="M3800 1285 c-29 -35 -378 -313 -408 -325 -21 -8 -29 -16 -21 -20 6
-4 27 3 46 16 19 13 43 26 54 29 11 4 17 10 14 14 -2 5 64 65 148 134 143 118
197 167 185 167 -3 0 -11 -7 -18 -15z"/>
<path d="M1396 1260 c7 -29 43 -100 43 -85 0 6 -11 33 -25 60 -13 28 -21 39
-18 25z"/>
<path d="M1161 1185 c0 -5 6 -21 14 -35 8 -14 14 -20 14 -15 0 6 -6 21 -14 35
-8 14 -14 21 -14 15z"/>
<path d="M4606 1175 c-9 -26 -7 -32 5 -12 6 10 9 21 6 23 -2 3 -7 -2 -11 -11z"/>
<path d="M963 1135 c0 -27 2 -38 4 -22 2 15 2 37 0 50 -2 12 -4 0 -4 -28z"/>
<path d="M1451 1135 c0 -5 13 -35 29 -65 16 -30 29 -50 29 -45 0 6 -13 35 -29
65 -16 30 -29 51 -29 45z"/>
<path d="M3700 1095 c-25 -13 -40 -24 -35 -24 6 0 30 11 55 24 25 13 41 24 35
24 -5 0 -30 -11 -55 -24z"/>
<path d="M1200 1096 c0 -10 70 -146 75 -146 3 0 -11 33 -31 73 -38 74 -44 85
-44 73z"/>
<path d="M4544 1048 c-9 -18 -36 -63 -60 -100 -53 -83 -50 -90 4 -10 42 60 86
142 77 142 -2 0 -12 -15 -21 -32z"/>
<path d="M3565 1035 c-38 -18 -65 -33 -60 -33 6 -1 42 14 80 33 39 18 66 33
60 33 -5 1 -41 -14 -80 -33z"/>
<path d="M972 1040 c0 -14 2 -19 5 -12 2 6 2 18 0 25 -3 6 -5 1 -5 -13z"/>
<path d="M981 984 c0 -11 3 -14 6 -6 3 7 2 16 -1 19 -3 4 -6 -2 -5 -13z"/>
<path d="M991 934 c0 -11 3 -14 6 -6 3 7 2 16 -1 19 -3 4 -6 -2 -5 -13z"/>
<path d="M4142 915 c0 -16 2 -22 5 -12 2 9 2 23 0 30 -3 6 -5 -1 -5 -18z"/>
<path d="M1305 890 c9 -16 18 -30 21 -30 2 0 -2 14 -11 30 -9 17 -18 30 -21
30 -2 0 2 -13 11 -30z"/>
<path d="M654 896 c11 -30 89 -123 103 -123 17 0 16 7 -3 32 -15 19 -13 20 43
26 l58 6 -67 1 c-51 2 -70 6 -80 20 -7 9 -24 26 -37 37 -24 19 -24 19 -17 1z"/>
<path d="M1001 893 c-1 -7 -10 -13 -22 -13 -17 0 -20 -4 -15 -24 5 -22 2 -25
-26 -29 -30 -3 -29 -4 8 -5 46 -2 83 -33 85 -73 1 -17 3 -19 6 -7 4 15 8 16
25 7 31 -17 43 3 23 40 l-16 32 71 -2 c38 -1 73 1 77 4 3 4 -32 7 -79 7 -75 0
-87 3 -105 23 -11 12 -23 29 -26 37 -3 9 -6 10 -6 3z"/>
<path d="M2731 874 c0 -11 3 -14 6 -6 3 7 2 16 -1 19 -3 4 -6 -2 -5 -13z"/>
<path d="M3849 873 c-13 -16 -12 -17 4 -4 16 13 21 21 13 21 -2 0 -10 -8 -17
-17z"/>
<path d="M4131 864 c0 -11 3 -14 6 -6 3 7 2 16 -1 19 -3 4 -6 -2 -5 -13z"/>
<path d="M4419 853 c-13 -16 -12 -17 4 -4 9 7 17 15 17 17 0 8 -8 3 -21 -13z"/>
<path d="M2721 834 c0 -11 3 -14 6 -6 3 7 2 16 -1 19 -3 4 -6 -2 -5 -13z"/>
<path d="M4121 824 c0 -11 3 -14 6 -6 3 7 2 16 -1 19 -3 4 -6 -2 -5 -13z"/>
<path d="M3799 813 c-13 -16 -12 -17 4 -4 9 7 17 15 17 17 0 8 -8 3 -21 -13z"/>
<path d="M2711 794 c0 -11 3 -14 6 -6 3 7 2 16 -1 19 -3 4 -6 -2 -5 -13z"/>
<path d="M2975 785 c-27 -13 -45 -23 -40 -24 6 0 33 11 60 24 28 13 46 23 40
24 -5 0 -32 -11 -60 -24z"/>
<path d="M3150 800 c-8 -5 -10 -10 -5 -10 6 0 17 5 25 10 8 5 11 10 5 10 -5 0
-17 -5 -25 -10z"/>
<path d="M4375 801 c-3 -6 -11 -9 -16 -6 -5 4 -9 0 -9 -7 0 -7 -19 -31 -42
-55 -23 -23 -40 -45 -37 -48 3 -2 32 22 64 55 32 33 56 62 53 65 -3 4 -9 1
-13 -4z"/>
<path d="M4012 745 c-12 -25 -20 -45 -17 -45 7 0 47 81 43 86 -3 2 -14 -17
-26 -41z"/>
<path d="M3040 750 c-19 -11 -30 -19 -25 -19 6 0 26 8 45 19 19 11 31 19 25
19 -5 0 -26 -8 -45 -19z"/>
<path d="M3262 740 c0 -19 2 -27 5 -17 2 9 2 25 0 35 -3 9 -5 1 -5 -18z"/>
<path d="M3744 748 l-19 -23 23 19 c21 18 27 26 19 26 -2 0 -12 -10 -23 -22z"/>
<path d="M2890 750 c-8 -5 -10 -10 -5 -10 6 0 17 5 25 10 8 5 11 10 5 10 -5 0
-17 -5 -25 -10z"/>
<path d="M790 747 c0 -2 15 -16 33 -33 l32 -29 -29 33 c-28 30 -36 37 -36 29z"/>
<path d="M2840 730 c-8 -5 -10 -10 -5 -10 6 0 17 5 25 10 8 5 11 10 5 10 -5 0
-17 -5 -25 -10z"/>
<path d="M2660 717 c-29 -10 -36 -17 -38 -45 -3 -26 -11 -36 -42 -52 -49 -25
-48 -25 -53 8 -4 27 -4 27 -6 -4 -1 -25 -8 -33 -46 -52 -25 -12 -52 -22 -60
-22 -8 0 -15 -4 -15 -9 0 -5 11 -8 24 -7 13 0 22 4 20 7 -4 7 67 42 73 35 2
-2 -8 -10 -24 -18 -33 -15 -41 -49 -20 -82 11 -16 12 -27 5 -40 -5 -10 -8 -20
-5 -23 3 -2 8 5 12 16 3 12 15 21 25 21 11 0 30 5 43 11 18 8 31 8 48 -1 l24
-11 -24 19 c-17 14 -23 26 -19 44 4 20 -1 29 -24 42 -15 10 -28 20 -28 25 0 4
20 17 44 28 38 19 46 20 56 7 7 -7 21 -14 32 -14 18 0 19 -7 17 -90 -1 -50 0
-93 3 -95 3 -3 5 1 5 8 1 6 2 49 3 94 2 45 6 80 11 78 4 -3 19 0 33 6 20 10
31 8 63 -11 35 -20 36 -20 13 -1 -14 11 -29 21 -33 21 -5 0 -6 4 -3 9 3 5 -2
8 -11 7 -14 -1 -17 6 -15 35 3 29 -2 40 -20 53 -26 19 -23 18 -68 3z"/>
<path d="M1041 704 c0 -11 3 -14 6 -6 3 7 2 16 -1 19 -3 4 -6 -2 -5 -13z"/>
<path d="M2930 700 c-19 -11 -30 -19 -25 -19 6 0 26 8 45 19 19 11 31 19 25
19 -5 0 -26 -8 -45 -19z"/>
<path d="M2770 700 c-8 -5 -10 -10 -5 -10 6 0 17 5 25 10 8 5 11 10 5 10 -5 0
-17 -5 -25 -10z"/>
<path d="M1730 665 c13 -14 26 -25 28 -25 3 0 -5 11 -18 25 -13 14 -26 25 -28
25 -3 0 5 -11 18 -25z"/>
<path d="M3970 668 c-12 -22 -12 -22 6 -6 10 10 15 20 12 24 -4 3 -12 -5 -18
-18z"/>
<path d="M1440 676 c0 -2 8 -10 18 -17 15 -13 16 -12 3 4 -13 16 -21 21 -21
13z"/>
<path d="M2830 655 c-25 -13 -42 -24 -39 -25 10 0 99 40 99 45 0 9 -15 4 -60
-20z"/>
<path d="M3252 660 c0 -14 2 -19 5 -12 2 6 2 18 0 25 -3 6 -5 1 -5 -13z"/>
<path d="M2040 666 c0 -7 131 -48 136 -43 3 3 -23 14 -57 26 -63 21 -79 25
-79 17z"/>
<path d="M3605 598 l-60 -63 63 60 c58 55 67 65 59 65 -1 0 -29 -28 -62 -62z"/>
<path d="M1485 620 c10 -11 20 -20 23 -20 3 0 -3 9 -13 20 -10 11 -20 20 -23
20 -3 0 3 -9 13 -20z"/>
<path d="M1541 596 c-1 -26 -3 -27 -18 -15 -16 13 -17 12 -4 -4 18 -22 34 -8
28 24 -4 21 -4 21 -6 -5z"/>
<path d="M1790 595 c13 -14 26 -25 28 -25 3 0 -5 11 -18 25 -13 14 -26 25 -28
25 -3 0 5 -11 18 -25z"/>
<path d="M3241 604 c0 -11 3 -14 6 -6 3 7 2 16 -1 19 -3 4 -6 -2 -5 -13z"/>
<path d="M2845 563 c6 -6 46 -34 90 -63 89 -60 210 -174 200 -190 -3 -5 -2
-10 4 -10 6 0 15 -10 22 -22 10 -18 8 -24 -10 -38 -12 -9 -23 -23 -24 -30 -2
-8 -7 -22 -11 -30 -5 -8 2 -5 15 6 13 12 38 29 55 37 56 29 74 74 19 49 -22
-10 -26 -9 -40 19 -9 16 -13 35 -9 41 4 6 3 8 -4 4 -6 -3 -32 16 -59 45 -26
28 -84 77 -129 109 -78 55 -140 93 -119 73z"/>
<path d="M3231 554 c0 -11 3 -14 6 -6 3 7 2 16 -1 19 -3 4 -6 -2 -5 -13z"/>
<path d="M1860 515 c19 -19 36 -35 39 -35 3 0 -10 16 -29 35 -19 19 -36 35
-39 35 -3 0 10 -16 29 -35z"/>
<path d="M1575 510 c10 -11 20 -20 23 -20 3 0 -3 9 -13 20 -10 11 -20 20 -23
20 -3 0 3 -9 13 -20z"/>
<path d="M3839 501 c-24 -16 -55 -39 -69 -52 -21 -20 -22 -24 -8 -27 26 -5
128 75 128 99 0 13 -1 12 -51 -20z"/>
<path d="M2325 500 c-3 -6 1 -7 9 -4 18 7 21 14 7 14 -6 0 -13 -4 -16 -10z"/>
<path d="M2220 444 c-128 -72 -228 -152 -256 -207 -13 -24 -19 -27 -45 -22
-16 4 -29 4 -29 1 0 -11 67 -54 95 -60 l30 -6 -30 26 -29 27 21 36 c27 47 127
129 231 187 70 39 92 54 80 54 -2 0 -32 -16 -68 -36z"/>
<path d="M1541 453 c-1 -23 34 -113 44 -113 4 0 4 4 0 10 -3 5 -14 35 -25 67
-10 32 -19 48 -19 36z"/>
<path d="M1200 406 c0 -7 123 -77 127 -73 2 3 -18 17 -44 33 -50 30 -83 46
-83 40z"/>
<path d="M3754 388 l-19 -23 23 19 c12 11 22 21 22 23 0 8 -8 2 -26 -19z"/>
<path d="M1985 380 c10 -11 20 -20 23 -20 3 0 -3 9 -13 20 -10 11 -20 20 -23
20 -3 0 3 -9 13 -20z"/>
<path d="M2610 370 c6 -11 13 -20 16 -20 2 0 0 9 -6 20 -6 11 -13 20 -16 20
-2 0 0 -9 6 -20z"/>
<path d="M2671 321 c-1 -33 -2 -34 -17 -15 -14 18 -15 18 -4 -5 15 -30 33 -14
27 25 -4 27 -4 27 -6 -5z"/>
<path d="M1560 320 c0 -5 10 -16 21 -24 l21 -14 -21 -23 c-26 -28 -26 -42 -3
-60 14 -11 15 -11 5 1 -19 21 -16 38 11 55 22 15 27 15 55 1 69 -36 68 -11 -2
30 -62 37 -87 47 -87 34z"/>
<path d="M2860 295 c13 -14 26 -25 28 -25 3 0 -5 11 -18 25 -13 14 -26 25 -28
25 -3 0 5 -11 18 -25z"/>
<path d="M2670 265 c0 -5 5 -17 10 -25 5 -8 10 -10 10 -5 0 6 -5 17 -10 25 -5
8 -10 11 -10 5z"/>
<path d="M2934 221 c20 -29 36 -59 36 -66 0 -7 -12 -23 -27 -34 -29 -21 -16
-29 17 -11 21 11 46 -11 34 -32 -5 -10 -4 -11 7 0 10 9 10 15 1 24 -17 17 -15
26 8 33 29 9 25 28 -4 21 -19 -5 -26 -1 -35 22 -7 15 -25 43 -42 62 -27 32
-27 30 5 -19z"/>
<path d="M3079 233 c-13 -16 -12 -17 4 -4 16 13 21 21 13 21 -2 0 -10 -8 -17
-17z"/>
<path d="M2391 184 c0 -11 3 -14 6 -6 3 7 2 16 -1 19 -3 4 -6 -2 -5 -13z"/>
<path d="M2628 109 c-24 -14 -23 -39 2 -39 20 0 44 32 33 44 -8 8 -15 7 -35
-5z"/>
<path d="M2978 53 c7 -3 16 -2 19 1 4 3 -2 6 -13 5 -11 0 -14 -3 -6 -6z"/>
<path d="M2430 30 c8 -5 20 -10 25 -10 6 0 3 5 -5 10 -8 5 -19 10 -25 10 -5 0
-3 -5 5 -10z"/>
</g>
</svg>
